<?xml version="1.0" encoding="UTF-8" standalone="no"?>
<svg
   width="501.28000793457034"
   height="75.36453529202126"
   viewBox="0 0 230 34.5791630282359"
   class="css-1j8o68f"
   version="1.1"
   id="svg17"
   sodipodi:docname="logo.svg"
   xmlns:inkscape="http://www.inkscape.org/namespaces/inkscape"
   xmlns:sodipodi="http://sodipodi.sourceforge.net/DTD/sodipodi-0.dtd"
   xmlns="http://www.w3.org/2000/svg"
   xmlns:svg="http://www.w3.org/2000/svg">
  <sodipodi:namedview
     id="namedview19"
     pagecolor="#ffffff"
     bordercolor="#000000"
     borderopacity="0.25"
     inkscape:showpageshadow="2"
     inkscape:pageopacity="0.0"
     inkscape:pagecheckerboard="0"
     inkscape:deskcolor="#d1d1d1" />
  <defs
     id="SvgjsDefs2381" />
  <g
     id="SvgjsG2382"
     featurekey="PG4fjM-0"
     transform="matrix(10,0,0,5,0,-60)"
     fill="#D80000">
    <g
       transform="translate(-270 -140)"
       id="g11">
      <g
         id="g9">
        <path
           d="M279,161c-0.736,0-1.375,0.405-1.722,1c-0.172,0.295-0.278,0.635-0.278,1c0,1.102,0.897,2,2,2c1.103,0,2-0.898,2-2    c0-0.365-0.105-0.705-0.278-1C280.375,161.405,279.737,161,279,161z"
           id="path3" />
        <path
           d="M293,161c-0.736,0-1.375,0.405-1.722,1c-0.172,0.295-0.278,0.635-0.278,1c0,1.102,0.897,2,2,2c1.103,0,2-0.898,2-2    c0-0.365-0.105-0.705-0.278-1C294.375,161.405,293.737,161,293,161z"
           id="path5" />
        <path
           d="M299,159v-1l-6-1.715L286,152h-11v1h6v1h-11v1h12v1h-10v1h5v1h-2v1h-4v1h5v1h-1v1h-3v1h4c0-0.352,0.072-0.686,0.184-1    c0.414-1.162,1.512-2,2.816-2c1.305,0,2.402,0.838,2.816,2c0.111,0.314,0.184,0.648,0.184,1h8c0-0.352,0.072-0.686,0.184-1    c0.414-1.162,1.512-2,2.816-2c1.305,0,2.402,0.838,2.816,2c0.111,0.314,0.184,0.648,0.184,1h3v-1h1v-3H299z"
           id="path7" />
      </g>
    </g>
  </g>
  <g
     id="SvgjsG2383"
     featurekey="jxYttZ-0"
     transform="matrix(1.4,0,0,1.4,78.2569081006969,1)"
     fill="#111111">
    <svg width="102.358" height="21.265" viewBox="0 0 102.358 21.265" xmlns="http://www.w3.org/2000/svg"><g id="svgGroup" stroke-linecap="round" fill-rule="evenodd" font-size="9pt" stroke="#000" stroke-width="0.25mm" fill="#000" style="stroke:#000;stroke-width:0.25mm;fill:#000"><path d="M 16.37 20.863 L 16.37 10.232 L 9.03 10.232 L 9.03 12.634 L 12.1 12.634 L 12.1 13.257 A 19.222 19.222 0 0 1 12.023 14.779 Q 11.827 16.876 11.143 17.861 A 2.964 2.964 0 0 1 9.083 19.119 A 4.576 4.576 0 0 1 8.363 19.173 A 2.519 2.519 0 0 1 7.016 18.818 Q 6.508 18.505 6.149 17.917 A 4.389 4.389 0 0 1 5.761 17.082 A 9.52 9.52 0 0 1 5.406 15.711 Q 5.027 13.709 5.027 10.432 A 41.322 41.322 0 0 1 5.077 8.319 Q 5.227 5.4 5.828 3.982 A 3.8 3.8 0 0 1 6.378 3.047 A 2.574 2.574 0 0 1 8.474 2.091 A 4.779 4.779 0 0 1 9.374 2.17 Q 10.504 2.386 11.01 3.203 A 4.336 4.336 0 0 1 11.407 4.057 Q 11.709 4.919 11.839 6.166 A 16.083 16.083 0 0 1 11.877 6.584 L 15.881 5.961 Q 15.658 3.828 14.797 2.458 A 5.056 5.056 0 0 0 14.013 1.491 A 4.447 4.447 0 0 0 12.548 0.586 Q 11.062 0 8.719 0 A 14.537 14.537 0 0 0 6.33 0.182 Q 5.071 0.393 4.093 0.846 A 5.566 5.566 0 0 0 1.913 2.58 A 8.133 8.133 0 0 0 0.766 4.85 Q 0.05 6.982 0.003 10.088 A 29.102 29.102 0 0 0 0 10.521 A 24.54 24.54 0 0 0 0.15 13.325 Q 0.512 16.463 1.75 18.365 A 7.159 7.159 0 0 0 1.891 18.572 Q 3.557 20.944 7.279 21.226 A 13.794 13.794 0 0 0 8.319 21.264 Q 11.255 21.264 13.078 18.906 L 13.968 20.863 L 16.37 20.863 Z M 49.199 20.863 L 54.538 20.863 L 51.379 13.257 A 2.606 2.606 0 0 0 50.815 12.458 Q 50.496 12.144 50.045 11.878 Q 53.692 10.765 53.692 6.717 A 7.312 7.312 0 0 0 53.222 4.069 A 6.796 6.796 0 0 0 52.358 2.491 A 4.649 4.649 0 0 0 50.411 1.044 Q 49.601 0.705 48.566 0.544 A 13.337 13.337 0 0 0 46.53 0.401 L 38.568 0.401 L 38.568 20.863 L 43.594 20.863 L 43.594 12.367 L 44.44 12.367 A 5.655 5.655 0 0 1 44.8 12.377 Q 45.393 12.416 45.619 12.589 A 0.968 0.968 0 0 1 45.782 12.755 Q 45.926 12.937 46.076 13.247 A 5.873 5.873 0 0 1 46.219 13.568 L 49.199 20.863 Z M 78.47 6.273 L 76.824 4.849 L 74.555 4.849 L 74.555 20.863 L 79.538 20.863 L 79.538 8.096 A 5.456 5.456 0 0 1 80.546 7.549 A 3.86 3.86 0 0 1 82.006 7.251 A 3.262 3.262 0 0 1 82.567 7.296 Q 83.33 7.429 83.63 7.963 A 2.41 2.41 0 0 1 83.841 8.49 Q 83.988 9.011 84.021 9.775 A 10.664 10.664 0 0 1 84.03 10.232 L 84.03 20.863 L 88.968 20.863 L 88.968 9.609 A 6.644 6.644 0 0 0 88.767 7.932 A 4.922 4.922 0 0 0 87.7 5.894 A 3.968 3.968 0 0 0 85.876 4.735 Q 84.977 4.449 83.808 4.449 A 8.313 8.313 0 0 0 80.744 5.058 Q 79.685 5.475 78.613 6.178 A 14.412 14.412 0 0 0 78.47 6.273 Z M 61.477 13.523 L 70.952 13.523 L 70.952 12.99 Q 70.952 5.45 65.406 4.566 A 9.987 9.987 0 0 0 63.835 4.449 A 9.012 9.012 0 0 0 60.772 4.926 Q 56.809 6.355 56.557 12.06 A 18.014 18.014 0 0 0 56.539 12.856 A 16.809 16.809 0 0 0 56.675 15.064 Q 57.021 17.67 58.252 19.173 A 5.3 5.3 0 0 0 60.737 20.834 Q 62.02 21.264 63.724 21.264 A 16.819 16.819 0 0 0 65.463 21.18 Q 67.861 20.93 68.995 19.929 A 5.037 5.037 0 0 0 70.555 17.312 A 6.934 6.934 0 0 0 70.73 16.281 L 66.637 16.192 A 4.156 4.156 0 0 1 66.526 17.199 Q 66.199 18.505 64.908 18.757 A 3.517 3.517 0 0 1 64.235 18.817 A 2.801 2.801 0 0 1 63.364 18.689 A 2.164 2.164 0 0 1 62.144 17.683 A 3.39 3.39 0 0 1 61.829 16.921 Q 61.593 16.115 61.515 14.858 A 21.738 21.738 0 0 1 61.477 13.523 Z M 102.358 20.285 L 101.691 18.061 Q 100.648 18.538 99.945 18.55 A 2.107 2.107 0 0 1 99.911 18.55 A 1.205 1.205 0 0 1 99.378 18.44 Q 98.872 18.194 98.777 17.393 A 3.398 3.398 0 0 1 98.755 16.993 L 98.755 7.385 L 101.78 7.385 L 101.78 4.849 L 98.755 4.849 L 98.755 0.979 L 93.772 2.669 L 93.772 4.849 L 91.37 4.849 L 91.37 7.385 L 93.772 7.385 L 93.772 16.015 A 13.032 13.032 0 0 0 93.837 17.366 Q 94.035 19.258 94.84 20.063 Q 95.926 21.149 97.867 21.253 A 7.863 7.863 0 0 0 98.288 21.264 A 8.893 8.893 0 0 0 100.992 20.862 A 7.998 7.998 0 0 0 102.358 20.285 Z M 29.423 4.635 A 10.994 10.994 0 0 0 27.336 4.449 A 9.759 9.759 0 0 0 24.197 4.911 Q 19.751 6.419 19.751 12.856 Q 19.751 20.013 25.248 21.078 A 10.994 10.994 0 0 0 27.336 21.264 A 9.759 9.759 0 0 0 30.474 20.802 Q 34.92 19.293 34.92 12.856 Q 34.92 5.699 29.423 4.635 Z M 25.223 8.319 A 5.607 5.607 0 0 0 25.022 8.992 Q 24.689 10.397 24.689 12.856 Q 24.689 15.094 24.965 16.459 A 6.146 6.146 0 0 0 25.223 17.394 A 2.881 2.881 0 0 0 25.325 17.633 Q 25.709 18.432 26.49 18.692 A 2.667 2.667 0 0 0 27.336 18.817 Q 28.915 18.817 29.426 17.416 A 5.659 5.659 0 0 0 29.629 16.703 Q 29.938 15.31 29.938 12.856 A 32.92 32.92 0 0 0 29.918 11.68 Q 29.865 10.207 29.672 9.216 A 6.113 6.113 0 0 0 29.426 8.297 Q 28.915 6.895 27.336 6.895 A 3.007 3.007 0 0 0 26.859 6.931 Q 26.124 7.049 25.672 7.553 A 2.386 2.386 0 0 0 25.223 8.319 Z M 45.819 10.587 L 43.594 10.587 L 43.594 2.225 L 45.819 2.225 A 2.176 2.176 0 0 1 47.551 3.039 A 3.384 3.384 0 0 1 47.909 3.559 A 5.845 5.845 0 0 1 48.639 5.963 A 7.141 7.141 0 0 1 48.666 6.584 A 6.262 6.262 0 0 1 48.534 7.904 A 4.49 4.49 0 0 1 47.909 9.431 A 2.706 2.706 0 0 1 47.246 10.147 Q 46.642 10.587 45.819 10.587 Z M 66.148 11.077 L 61.566 11.077 A 21.174 21.174 0 0 1 61.672 9.984 Q 61.868 8.42 62.256 7.763 A 1.676 1.676 0 0 1 63.466 6.931 A 2.526 2.526 0 0 1 63.901 6.895 A 1.999 1.999 0 0 1 64.615 7.016 Q 65.214 7.243 65.547 7.896 A 3.883 3.883 0 0 1 65.814 8.594 Q 66.025 9.333 66.11 10.423 A 17.815 17.815 0 0 1 66.148 11.077 Z" vector-effect="non-scaling-stroke"/></g></svg>
  </g>
</svg>
